<?xml version="1.0" standalone="no"?>
<!DOCTYPE svg PUBLIC "-//W3C//DTD SVG 20010904//EN"
 "http://www.w3.org/TR/2001/REC-SVG-20010904/DTD/svg10.dtd">
<svg version="1.0" xmlns="http://www.w3.org/2000/svg"
 width="1024.000000pt" height="1024.000000pt" viewBox="0 0 1024.000000 1024.000000"
 preserveAspectRatio="xMidYMid meet">

<g transform="translate(0.000000,1024.000000) scale(0.100000,-0.100000)"
fill="#000000" stroke="none">
<path d="M0 5120 l0 -5120 5120 0 5120 0 0 5120 0 5120 -5120 0 -5120 0 0
-5120z m5184 3690 c94 -24 203 -80 256 -131 44 -43 85 -116 95 -172 6 -32 11
-37 34 -37 44 0 125 -45 164 -90 84 -99 100 -238 48 -441 -16 -63 -44 -153
-63 -201 -31 -78 -33 -88 -17 -88 75 0 101 -101 59 -226 -50 -146 -126 -244
-189 -244 -25 0 -29 -6 -55 -90 -40 -127 -113 -245 -221 -355 -143 -146 -256
-187 -396 -147 -99 29 -257 183 -351 343 -21 35 -52 105 -69 156 -27 82 -34
94 -57 98 -74 16 -120 67 -177 201 -48 115 -57 197 -25 237 12 15 28 27 35 27
10 0 8 13 -11 53 -41 91 -64 201 -64 306 0 146 35 249 122 367 89 119 299 259
458 304 37 11 54 19 40 19 -59 2 -200 -22 -264 -44 -39 -14 -71 -23 -73 -22
-6 7 96 77 152 105 67 33 177 69 252 82 93 15 236 11 317 -10z m-1211 -902 c5
-45 37 -155 61 -209 8 -18 -19 -33 -687 -385 -180 -96 -347 -187 -370 -203
-66 -46 -103 -90 -139 -166 l-33 -70 -5 -1085 -6 -1085 -48 -113 c-75 -176
-89 -300 -50 -432 7 -24 12 -45 10 -47 -5 -6 -78 72 -107 114 -16 23 -44 77
-62 120 l-32 78 -3 1245 c-2 1107 -1 1252 13 1310 33 134 120 260 239 344 34
25 217 126 407 224 189 98 405 211 479 250 200 104 314 162 321 162 3 0 9 -24
12 -52z m2577 -217 c283 -145 558 -287 610 -315 181 -97 298 -245 335 -421 22
-107 22 -2432 0 -2520 -21 -83 -75 -189 -132 -259 -65 -80 -75 -82 -56 -9 10
41 14 89 11 163 -4 99 -8 114 -59 245 l-54 140 -5 1085 -5 1085 -23 49 c-29
64 -82 129 -135 164 -23 16 -154 86 -292 157 -267 136 -692 358 -762 397 -30
16 -41 28 -37 38 31 73 57 165 62 213 3 37 9 57 16 55 7 -2 243 -122 526 -267z
m-1891 -1102 c169 -168 371 -206 551 -101 55 32 146 116 202 190 l43 55 12
-59 c6 -32 15 -91 19 -131 6 -62 4 -77 -16 -117 -26 -54 -82 -103 -166 -145
-102 -50 -175 -65 -314 -65 -108 0 -136 4 -205 27 -96 32 -189 85 -231 132
-50 56 -58 102 -40 224 9 58 16 112 16 120 0 10 11 2 27 -19 14 -19 60 -69
102 -111z m1186 -97 c196 -87 465 -205 615 -271 116 -50 114 -49 132 -86 17
-33 194 -564 283 -850 31 -99 101 -319 155 -490 54 -170 106 -338 114 -371 35
-137 9 -283 -64 -367 -55 -62 -83 -77 -240 -132 -74 -26 -163 -62 -197 -80
-35 -18 -63 -28 -63 -21 0 6 7 83 15 171 8 88 19 216 25 285 16 187 6 170 105
170 46 0 130 -9 186 -20 57 -11 104 -18 107 -16 11 12 -205 135 -273 156 -84
26 -62 32 106 28 l165 -4 -45 22 c-62 28 -206 81 -260 94 l-44 11 6 72 c3 40
13 167 23 282 l17 210 -21 71 c-28 93 -87 160 -180 206 l-67 33 -1445 0 -1445
0 -63 -29 c-70 -33 -119 -81 -158 -158 -37 -72 -41 -155 -18 -408 10 -113 18
-223 19 -245 l0 -40 -53 -7 c-80 -12 -315 -99 -301 -112 2 -2 39 0 83 4 89 9
246 2 246 -11 0 -5 -7 -9 -16 -9 -50 0 -323 -146 -324 -173 0 -4 8 -3 18 2 20
11 195 37 299 45 l71 6 6 -38 c9 -59 46 -510 46 -565 0 -49 0 -49 -22 -35 -13
8 -81 36 -153 63 -238 88 -302 131 -357 243 -31 63 -33 73 -33 172 1 93 5 118
37 220 21 63 69 219 108 345 92 299 386 1196 412 1257 23 53 13 48 367 205
119 52 291 128 383 169 179 79 206 87 188 55 -5 -11 -10 -41 -10 -68 0 -159
207 -336 466 -399 98 -24 295 -24 399 -1 191 44 374 167 436 292 29 59 31 71
27 135 -3 38 -3 68 1 66 3 -2 87 -40 186 -84z m611 -1067 c46 -27 76 -69 92
-126 10 -37 9 -45 -38 -514 -17 -169 -56 -602 -76 -827 -3 -34 -7 -81 -10
-103 l-5 -41 -1422 3 c-782 2 -1423 6 -1424 10 -1 5 -9 100 -18 213 -8 113
-26 333 -40 490 -63 702 -66 741 -55 781 13 47 63 107 105 125 24 11 297 13
1439 14 l1409 0 43 -25z m350 -1767 c-15 -96 -106 -186 -209 -207 -36 -8 -524
-11 -1627 -9 l-1575 3 -51 27 c-28 15 -66 41 -83 59 -36 36 -81 118 -81 149
l0 20 1816 0 1817 0 -7 -42z m-4686 -525 c75 -30 112 -85 125 -183 8 -65 0
-72 -81 -68 l-69 3 -3 40 c-4 50 -26 75 -65 75 -97 0 -102 -130 -8 -211 93
-81 194 -185 212 -222 18 -34 20 -54 17 -137 -3 -85 -6 -101 -30 -137 -16 -25
-44 -49 -73 -63 -163 -79 -336 18 -339 190 l-1 55 73 3 c70 3 72 2 72 -21 0
-96 71 -138 131 -78 60 61 32 135 -93 245 -116 102 -156 150 -173 210 -19 63
-19 99 0 164 40 133 170 191 305 135z m2941 -3 c74 -38 119 -115 119 -202 l0
-37 -55 -6 c-30 -4 -66 -4 -80 -1 -21 5 -25 12 -25 45 0 49 -21 71 -66 71 -47
0 -74 -29 -74 -81 0 -59 23 -91 149 -202 138 -122 151 -145 151 -267 0 -102
-12 -139 -60 -187 -32 -33 -109 -63 -160 -63 -52 0 -125 29 -157 62 -43 45
-61 87 -69 152 -8 65 -2 70 86 71 l55 0 7 -50 c4 -30 14 -55 25 -63 71 -52
147 14 129 112 -5 28 -23 49 -79 98 -194 169 -222 211 -222 333 0 69 4 86 28
127 62 106 189 143 298 88z m990 14 c97 -29 166 -128 157 -225 l-3 -34 -70 0
-70 0 -6 44 c-7 51 -28 71 -75 71 -62 0 -94 -81 -60 -148 8 -16 62 -70 120
-122 122 -108 151 -146 166 -216 12 -58 1 -154 -24 -202 -34 -67 -114 -112
-197 -112 -121 0 -229 106 -229 226 0 59 6 64 80 64 l67 0 7 -49 c5 -37 13
-55 33 -70 34 -27 56 -26 90 3 25 21 28 31 28 81 0 63 17 42 -182 225 -105 97
-135 172 -114 286 18 95 79 162 166 183 56 13 55 13 116 -5z m569 -17 c25 -13
58 -41 75 -66 26 -37 30 -51 30 -109 l0 -67 -49 -3 c-79 -5 -96 2 -96 43 0 66
-69 98 -121 57 -28 -23 -31 -94 -6 -133 9 -14 68 -73 130 -131 63 -59 122
-123 131 -143 14 -29 17 -58 14 -144 -3 -100 -5 -110 -31 -144 -74 -97 -235
-114 -330 -36 -47 39 -77 103 -77 166 0 64 13 75 81 71 l53 -3 12 -50 c16 -62
46 -89 89 -81 16 3 38 16 48 27 19 23 23 92 8 131 -5 13 -58 67 -119 120 -92
82 -116 109 -143 163 -29 59 -31 71 -27 137 8 116 48 176 145 213 50 19 125
12 183 -18z m750 6 c49 -20 79 -50 106 -108 23 -49 24 -56 24 -344 0 -333 -3
-355 -65 -417 -64 -64 -161 -81 -245 -43 -56 25 -86 53 -111 102 -19 35 -20
57 -17 367 l3 328 30 43 c63 90 166 117 275 72z m-4602 -5 c13 -13 16 -106 4
-125 -5 -7 -39 -13 -87 -15 l-80 -3 -5 -385 -5 -385 -65 0 -65 0 -3 387 -2
387 -78 3 -77 3 -3 59 c-2 32 -1 65 2 72 7 19 446 20 464 2z m212 -338 c0
-385 3 -410 57 -431 31 -11 58 -7 88 15 19 14 20 29 25 388 l5 373 68 3 c49 2
67 0 68 -10 0 -7 0 -184 -1 -393 -1 -356 -2 -383 -21 -421 -24 -51 -77 -89
-145 -105 -99 -23 -194 11 -249 89 l-30 44 -3 386 c-1 212 0 392 2 399 4 9 26
13 71 13 l65 0 0 -350z m728 326 c56 -28 82 -55 114 -116 22 -43 23 -54 26
-314 4 -302 0 -325 -65 -397 -53 -59 -119 -79 -256 -79 -75 0 -117 4 -125 12
-9 9 -12 122 -12 449 0 241 3 444 6 453 5 13 27 16 135 16 117 0 134 -2 177
-24z m338 -41 c78 -226 98 -275 104 -268 5 4 32 81 60 171 l53 162 73 0 c65 0
74 -2 74 -19 0 -19 -95 -303 -154 -461 -36 -95 -36 -95 -36 -261 0 -131 -3
-169 -14 -178 -9 -7 -38 -11 -73 -9 l-58 3 -6 190 -5 190 -96 260 c-53 142
-93 265 -91 272 4 10 24 13 77 11 l71 -3 21 -60z m1644 -10 l0 -74 -137 -3
-138 -3 -3 -70 c-2 -38 0 -89 3 -112 l6 -43 72 0 c117 0 118 -1 115 -79 l-3
-66 -95 -5 -95 -5 -3 -117 -3 -117 138 -3 138 -3 0 -75 0 -75 -205 0 -205 0
-3 450 c-1 248 0 456 3 463 3 9 55 12 210 12 l205 0 0 -75z m1275 -390 l0
-460 -65 0 -65 0 -3 450 c-1 248 0 456 3 463 3 9 23 12 67 10 l63 -3 0 -460z
m796 425 c22 -47 168 -456 171 -478 1 -9 5 102 8 248 l5 265 70 0 70 0 3 -440
c1 -242 0 -450 -3 -462 -5 -21 -11 -23 -69 -23 -39 0 -68 5 -74 13 -11 12
-112 283 -168 447 l-29 85 -5 -270 -5 -270 -59 -3 c-32 -2 -63 1 -69 7 -6 6
-9 168 -8 453 1 244 1 449 1 456 0 10 18 12 72 10 72 -3 73 -3 89 -38z m-3711
-1145 c14 -7 36 -25 50 -40 24 -26 25 -33 31 -193 3 -92 2 -181 -3 -199 -27
-98 -141 -142 -238 -90 -74 39 -81 63 -78 274 l3 182 34 35 c52 53 132 66 201
31z m-497 4 c62 -32 107 -111 92 -159 -5 -16 -16 -20 -56 -20 -44 0 -49 2 -49
23 0 58 -59 86 -108 51 -21 -14 -22 -22 -22 -152 0 -162 8 -182 69 -182 42 0
55 10 65 53 6 24 11 27 50 27 49 0 60 -14 50 -58 -19 -81 -77 -125 -164 -125
-70 0 -116 25 -148 81 -20 36 -22 53 -22 194 0 140 2 158 23 198 13 27 35 50
57 62 39 20 129 24 163 7z m917 -139 l75 -145 3 140 c1 76 7 142 12 145 5 3
27 4 50 2 l40 -4 -2 -267 -3 -266 -29 -3 c-61 -7 -68 0 -136 148 -35 77 -68
140 -72 140 -5 0 -8 -65 -8 -146 l0 -145 -47 3 -48 3 4 265 c2 146 6 269 8
273 3 4 21 7 41 5 37 -3 38 -4 112 -148z m506 1 c39 -79 73 -137 76 -129 3 7
6 69 7 138 1 68 4 127 7 132 7 11 81 10 88 -1 3 -4 3 -128 -1 -275 l-6 -266
-46 0 -46 0 -65 150 c-36 82 -68 150 -72 150 -4 0 -9 -66 -10 -147 l-3 -148
-47 -3 -48 -3 0 209 c0 115 3 236 6 270 6 56 9 61 33 65 51 8 55 3 127 -142z
m652 97 l3 -48 -105 0 -106 0 0 -70 0 -70 76 0 75 0 -3 -42 -3 -43 -72 -3 -73
-3 0 -59 0 -60 105 0 105 0 0 -50 0 -50 -155 0 -155 0 0 268 c0 148 3 272 7
276 4 3 72 5 152 4 l146 -3 3 -47z m402 34 c50 -25 82 -77 78 -127 -3 -33 -7
-41 -27 -43 -41 -6 -71 7 -71 30 0 33 -29 58 -66 58 -59 0 -64 -15 -64 -174 0
-154 5 -170 52 -181 21 -5 33 -1 52 19 15 14 26 34 26 46 0 17 6 20 50 20 l50
0 0 -35 c0 -162 -240 -211 -315 -64 -12 21 -15 68 -15 196 0 188 7 213 72 253
42 26 129 27 178 2z m558 -34 l3 -48 -60 0 -61 0 -2 -222 -3 -223 -45 0 -45 0
-5 220 -5 220 -42 -3 c-67 -6 -83 3 -83 47 0 60 6 62 185 59 l160 -3 3 -47z
m-3610 -164 c26 -18 29 -60 5 -86 -15 -17 -41 -18 -396 -18 -419 0 -417 0
-417 61 0 58 7 59 415 59 319 0 374 -2 393 -16z m4767 -9 c30 -29 31 -35 4
-69 l-20 -26 -389 0 -389 0 -20 26 c-27 34 -26 40 4 69 l24 25 381 0 381 0 24
-25z"/>
<path d="M4808 8546 c-126 -51 -181 -82 -265 -148 -125 -98 -211 -232 -237
-367 l-6 -34 31 44 c50 70 128 157 161 180 l30 22 -36 -51 c-71 -98 -128 -252
-149 -404 -5 -36 4 -50 18 -28 4 6 37 26 74 45 l68 34 -29 -80 c-15 -44 -28
-101 -28 -126 l0 -45 68 38 c108 60 192 122 319 235 198 177 350 285 471 335
74 31 47 30 -97 -2 -159 -35 -275 -76 -414 -146 -66 -32 -115 -53 -111 -46
106 176 312 351 523 445 89 40 55 36 -89 -9 -166 -53 -326 -150 -401 -244
l-29 -37 0 35 c0 129 88 279 215 364 65 45 43 42 -87 -10z"/>
<path d="M4956 4789 c-60 -9 -120 -49 -160 -107 -24 -34 -31 -56 -34 -106 -5
-79 8 -121 54 -175 94 -110 245 -118 348 -18 167 160 23 440 -208 406z"/>
<path d="M7225 2975 l-25 -24 0 -260 c0 -143 4 -271 10 -285 22 -60 93 -71
127 -19 16 23 17 54 15 297 l-3 271 -25 23 c-33 29 -69 28 -99 -3z"/>
<path d="M3547 2983 c-4 -3 -7 -146 -7 -316 l0 -310 57 6 c91 9 96 18 105 199
10 183 3 339 -17 379 -9 16 -24 33 -34 39 -22 11 -94 14 -104 3z"/>
<path d="M3923 1853 c-16 -16 -17 -34 -13 -168 l5 -150 27 -12 c35 -17 75 -2
88 32 6 15 10 82 10 150 0 115 -2 126 -22 145 -27 25 -72 26 -95 3z"/>
</g>
</svg>
